<?xml version="1.0" encoding="UTF-8" standalone="no"?>
<!-- Created with Inkscape (http://www.inkscape.org/) -->

<svg
   width="12.699829mm"
   height="12.696831mm"
   viewBox="0 0 12.699829 12.696831"
   version="1.1"
   id="svg5"
   xml:space="preserve"
   xmlns:inkscape="http://www.inkscape.org/namespaces/inkscape"
   xmlns:sodipodi="http://sodipodi.sourceforge.net/DTD/sodipodi-0.dtd"
   xmlns="http://www.w3.org/2000/svg"
   xmlns:svg="http://www.w3.org/2000/svg"><sodipodi:namedview
     id="namedview7"
     pagecolor="#ffffff"
     bordercolor="#000000"
     borderopacity="0.25"
     inkscape:showpageshadow="2"
     inkscape:pageopacity="0.0"
     inkscape:pagecheckerboard="0"
     inkscape:deskcolor="#d1d1d1"
     inkscape:document-units="mm"
     showgrid="false" /><defs
     id="defs2" /><g
     inkscape:label="Layer 1"
     inkscape:groupmode="layer"
     id="layer1"
     transform="translate(-66.648019,-70.589392)"><path
       style="fill:#000000;stroke-width:0.0283621"
       d="m 68.502077,83.244358 c -0.937886,-0.172277 -1.693671,-0.958709 -1.828413,-1.902581 -0.02318,-0.162028 -0.02973,-1.319716 -0.02332,-4.111157 l 0.0095,-3.885615 0.06409,-0.207856 c 0.202486,-0.656111 0.64488,-1.177136 1.233223,-1.452443 0.318465,-0.149016 0.580326,-0.199375 1.131456,-0.217591 l 0.500961,-0.01656 0.0095,-0.291636 c 0.01091,-0.314711 0.03736,-0.381505 0.204832,-0.506572 0.121773,-0.09093 0.373924,-0.08198 0.504902,0.01792 0.151488,0.115541 0.193228,0.230167 0.193228,0.530587 v 0.258064 h 2.493284 2.493297 l 0.0095,-0.295817 c 0.01091,-0.319295 0.03696,-0.385307 0.204941,-0.510753 0.121774,-0.09093 0.373925,-0.08198 0.504904,0.01792 0.150859,0.115064 0.193228,0.230485 0.193228,0.52633 v 0.253807 l 0.50343,0.01664 c 0.553761,0.0183 0.81502,0.06846 1.133909,0.217666 0.588357,0.275307 1.030736,0.796332 1.233237,1.452443 l 0.06409,0.207856 0.0095,3.885616 c 0.0068,2.780973 -1.56e-4,3.949445 -0.02318,4.110134 -0.136229,0.954053 -0.888822,1.731984 -1.842745,1.904696 -0.303969,0.05504 -8.676611,0.05402 -8.976639,-0.0011 z m 8.904543,-0.90943 c 0.489166,-0.127419 0.865982,-0.505435 0.994095,-0.997275 0.03627,-0.139092 0.04227,-0.59959 0.04227,-3.205401 v -3.042974 h -5.445543 -5.445529 v 3.042974 c 0,2.605811 0.0068,3.066309 0.04227,3.205401 0.126546,0.485575 0.502502,0.866942 0.981917,0.995874 0.236975,0.06374 8.586053,0.06506 8.830445,0.0014 z m -5.187459,-1.728061 c -0.164919,-0.06011 -1.840877,-1.738088 -1.905949,-1.908241 -0.08045,-0.210391 -0.01363,-0.401802 0.188114,-0.539144 0.103365,-0.07034 0.300384,-0.08607 0.406311,-0.03245 0.03409,0.01725 0.377852,0.345822 0.763966,0.730162 l 0.702005,0.698805 1.325882,-1.322809 c 0.729236,-0.727545 1.353756,-1.336903 1.387834,-1.35413 0.08727,-0.04415 0.280732,-0.0389 0.375697,0.01023 0.115228,0.05958 0.223583,0.199272 0.245591,0.316575 0.04582,0.244406 0.06464,0.221993 -1.543519,1.834818 -0.821581,0.823925 -1.52612,1.515222 -1.565666,1.536217 -0.11782,0.06256 -0.260142,0.07379 -0.380266,0.03 z m 6.223855,-6.690747 c 0,-0.161663 -0.01227,-0.36268 -0.0285,-0.446705 -0.04568,-0.24495 -0.187201,-0.501163 -0.383689,-0.694817 -0.31162,-0.307118 -0.618206,-0.406763 -1.254073,-0.407596 l -0.375806,-5e-4 -6.25e-4,0.26235 c -4.68e-4,0.194186 -0.01432,0.29253 -0.05332,0.378506 -0.150709,0.331845 -0.648888,0.331845 -0.799599,0 -0.039,-0.08598 -0.05291,-0.18432 -0.05332,-0.378506 l -6.25e-4,-0.26235 h -2.495875 -2.495861 l -6.24e-4,0.26235 c -4.69e-4,0.194186 -0.01432,0.29253 -0.05332,0.378506 -0.15071,0.331845 -0.64889,0.331845 -0.799599,0 -0.039,-0.08598 -0.05291,-0.18432 -0.05332,-0.378506 l -6.25e-4,-0.26235 -0.375806,5e-4 c -0.636534,8.27e-4 -0.944513,0.101086 -1.252192,0.407596 -0.309273,0.308103 -0.414084,0.590385 -0.414084,1.115247 v 0.320205 h 5.445543 5.445529 z"
       id="path302"
       inkscape:export-filename="calendarSmall.svg"
       inkscape:export-xdpi="96"
       inkscape:export-ydpi="96" /></g></svg>
