<?xml version="1.0" encoding="UTF-8" standalone="no"?>
<!-- Created with Inkscape (http://www.inkscape.org/) -->

<svg
   width="135.20143mm"
   height="132.8208mm"
   viewBox="0 0 135.20143 132.8208"
   version="1.1"
   id="svg5"
   xml:space="preserve"
   xmlns:inkscape="http://www.inkscape.org/namespaces/inkscape"
   xmlns:sodipodi="http://sodipodi.sourceforge.net/DTD/sodipodi-0.dtd"
   xmlns="http://www.w3.org/2000/svg"
   xmlns:svg="http://www.w3.org/2000/svg"><sodipodi:namedview
     id="namedview7"
     pagecolor="#ffffff"
     bordercolor="#000000"
     borderopacity="0.25"
     inkscape:showpageshadow="2"
     inkscape:pageopacity="0.0"
     inkscape:pagecheckerboard="0"
     inkscape:deskcolor="#d1d1d1"
     inkscape:document-units="mm"
     showgrid="false" /><defs
     id="defs2" /><g
     inkscape:label="Layer 1"
     inkscape:groupmode="layer"
     id="layer1"
     transform="translate(-49.076535,-53.177843)"><path
       style="fill:#000000;stroke-width:0.264583"
       d="m 54.368195,185.34135 c -1.12367,-0.45638 -1.98554,-1.0682 -2.94987,-2.09405 -0.8778,-0.93381 -1.53655,-1.94917 -1.85208,-2.85469 l -0.48971,-1.4054 V 124.87992 70.772633 l 0.68821,-1.467281 c 0.37851,-0.807005 1.07331,-1.905887 1.54399,-2.44196 0.47068,-0.536073 1.64635,-1.364078 2.61262,-1.84001 l 1.75683,-0.865332 8.2747,-0.08608 8.27469,-0.08608 0.001,7.229829 c 8.4e-4,3.976407 0.11503,7.922866 0.25376,8.769913 0.13872,0.84704 0.54525,2.18012 0.90339,2.9624 0.35814,0.78228 1.20282,1.97399 1.87706,2.64823 0.67424,0.67424 1.90414,1.54381 2.7331,1.93238 l 1.50719,0.70649 2.88008,0.0905 c 1.81023,0.0569 3.33363,-0.0357 4.10104,-0.24914 0.67153,-0.1868 1.63769,-0.574 2.14701,-0.86043 0.50932,-0.28644 1.48279,-1.05415 2.16326,-1.70603 0.71253,-0.6826 1.55407,-1.87085 1.98437,-2.80194 l 0.74716,-1.61671 0.0766,-8.532812 0.0765,-8.532812 h 23.537505 23.53751 l 0.003,7.871354 c 0.002,6.0153 0.0933,8.21001 0.38536,9.30755 0.21022,0.78992 0.81416,2.06336 1.34209,2.82989 0.52793,0.76653 1.36828,1.70519 1.86744,2.08593 0.49917,0.38073 1.55312,0.98777 2.34211,1.34899 0.99524,0.45563 2.11319,0.70464 3.65072,0.81315 1.2664,0.0894 2.9717,0.0248 3.97906,-0.1506 0.96959,-0.16884 2.29799,-0.53636 2.952,-0.81671 0.65402,-0.28034 1.71503,-0.99447 2.3578,-1.58696 0.64277,-0.59248 1.44858,-1.69958 1.79069,-2.46023 l 0.62202,-1.38299 0.091,-8.950464 0.091,-8.950465 7.72396,0.08692 7.72396,0.08692 1.75683,0.865332 c 0.96626,0.475932 2.14193,1.303937 2.61261,1.84001 0.47068,0.536073 1.16548,1.634955 1.54399,2.44196 l 0.68821,1.467281 v 54.107284 54.10729 l -0.50022,1.43704 c -0.35169,1.01033 -0.94093,1.88442 -1.98438,2.94365 -1.07518,1.09144 -1.90611,1.66148 -3.01543,2.06868 l -1.53128,0.56208 -60.6458,-0.006 -60.645795,-0.006 z M 175.67965,137.8445 V 98.157002 H 116.67757 57.675495 V 137.8445 177.532 h 59.002075 59.00208 z m -105.899475,30.93505 -0.46302,-0.26968 v -7.10896 c 0,-3.90993 0.0723,-7.2973 0.1606,-7.52748 l 0.1606,-0.41852 h 8.42905 8.42905 l 0.27389,0.51178 c 0.16866,0.31515 0.27389,3.15567 0.27389,7.39333 v 6.88155 l -0.58804,0.41188 -0.58803,0.41188 -7.81249,-0.008 c -4.81244,-0.005 -7.99028,-0.11161 -8.2755,-0.27774 z m 25.4,0 -0.46302,-0.26968 v -7.10896 c 0,-3.90993 0.0723,-7.2973 0.1606,-7.52748 l 0.1606,-0.41852 h 8.385435 c 6.16923,0 8.46936,0.0839 8.70294,0.3175 0.23112,0.23112 0.3175,2.24269 0.3175,7.39334 v 7.07582 l -0.58804,0.41188 -0.58803,0.41188 -7.81249,-0.008 c -4.812435,-0.005 -7.990275,-0.11161 -8.275495,-0.27773 z m 25.399995,0 -0.46302,-0.26968 v -7.20998 c 0,-5.25498 0.0861,-7.29607 0.3175,-7.52748 0.23333,-0.23333 2.49884,-0.3175 8.54604,-0.3175 6.0472,0 8.31271,0.0842 8.54604,0.3175 0.23112,0.23112 0.3175,2.24269 0.3175,7.39334 v 7.07582 l -0.58804,0.41188 -0.58803,0.41188 -7.81249,-0.008 c -4.81244,-0.005 -7.99028,-0.11161 -8.2755,-0.27773 z m 25.53229,0.0129 -0.59531,-0.23928 v -7.23166 c 0,-5.27183 0.0861,-7.31769 0.3175,-7.54915 0.23333,-0.23333 2.49884,-0.3175 8.54604,-0.3175 6.0472,0 8.31271,0.0842 8.54604,0.3175 0.23112,0.23112 0.3175,2.24269 0.3175,7.39334 v 7.07582 l -0.58804,0.41188 -0.58803,0.41188 -7.6802,-0.0168 c -4.2241,-0.009 -7.94808,-0.12444 -8.2755,-0.25605 z M 69.634655,146.52283 c -0.23142,-0.23142 -0.3175,-2.27335 -0.3175,-7.53131 v -7.21382 l 0.51177,-0.27389 c 0.32015,-0.17134 3.48326,-0.27389 8.44777,-0.27389 h 7.936 l 0.41577,0.41577 0.41577,0.41577 v 6.87767 c 0,4.23497 -0.10524,7.0743 -0.27389,7.38943 l -0.27389,0.51177 h -8.27215 c -6.08112,0 -8.35624,-0.0841 -8.58965,-0.3175 z m 25.4,0 c -0.23142,-0.23142 -0.3175,-2.27335 -0.3175,-7.53131 v -7.21382 l 0.51177,-0.27389 c 0.32015,-0.17134 3.48326,-0.27389 8.447765,-0.27389 h 7.93599 l 0.41578,0.41577 0.41577,0.41577 v 6.87767 c 0,4.23497 -0.10524,7.0743 -0.27389,7.38943 l -0.27389,0.51177 h -8.27215 c -6.081115,0 -8.356245,-0.0841 -8.589645,-0.3175 z m 25.399995,0 c -0.23142,-0.23142 -0.3175,-2.27335 -0.3175,-7.53131 v -7.21382 l 0.51177,-0.27389 c 0.32015,-0.17134 3.48326,-0.27389 8.44777,-0.27389 h 7.936 l 0.41577,0.41577 0.41577,0.41577 v 6.87767 c 0,4.23497 -0.10524,7.0743 -0.27389,7.38943 l -0.27389,0.51177 h -8.27215 c -6.08112,0 -8.35624,-0.0841 -8.58965,-0.3175 z m 25.4,0 c -0.23142,-0.23142 -0.3175,-2.27335 -0.3175,-7.53131 v -7.21382 l 0.51177,-0.27389 c 0.32015,-0.17134 3.48326,-0.27389 8.44777,-0.27389 h 7.93599 l 0.41578,0.41577 0.41577,0.41577 v 6.87767 c 0,4.23497 -0.10524,7.0743 -0.27389,7.38943 l -0.27389,0.51177 h -8.27215 c -6.08112,0 -8.35625,-0.0841 -8.58965,-0.3175 z m -25.25448,-21.92869 -0.46302,-0.26968 v -7.20998 c 0,-5.25498 0.0861,-7.29607 0.3175,-7.52748 0.23341,-0.2334 2.50853,-0.3175 8.58965,-0.3175 h 8.27215 l 0.27389,0.51177 c 0.16865,0.31513 0.27389,3.15447 0.27389,7.38944 v 6.87766 l -0.41577,0.41577 -0.41577,0.41578 -7.98475,-0.008 c -4.92948,-0.005 -8.16192,-0.11123 -8.44777,-0.27773 z m 25.4,0 -0.46302,-0.26968 v -7.20998 c 0,-5.25498 0.0861,-7.29607 0.3175,-7.52748 0.2334,-0.2334 2.50853,-0.3175 8.58965,-0.3175 h 8.27215 l 0.27389,0.51177 c 0.16865,0.31513 0.27389,3.15447 0.27389,7.38944 v 6.87766 l -0.41577,0.41577 -0.41578,0.41578 -7.98474,-0.008 c -4.92948,-0.005 -8.16192,-0.11123 -8.44777,-0.27773 z M 80.974125,83.860502 c -0.64643,-0.13494 -1.59893,-0.58769 -2.11667,-1.00612 -0.51774,-0.41842 -1.17947,-1.16487 -1.47051,-1.65876 l -0.52916,-0.89799 -0.0771,-11.043674 c -0.0512,-7.33635 0.0192,-11.401019 0.20957,-12.10816 0.15765,-0.585468 0.65648,-1.485724 1.10852,-2.00057 0.45204,-0.514846 1.17034,-1.116271 1.59622,-1.336501 0.42588,-0.220229 1.56906,-0.465995 2.54041,-0.546146 0.97704,-0.08062 2.25063,-0.01415 2.85061,0.148787 0.59648,0.161984 1.48945,0.563621 1.98437,0.892527 0.49492,0.328906 1.16775,1.128293 1.49517,1.776416 l 0.59532,1.178407 v 11.411697 11.411697 l -0.61586,1.1661 c -0.38875,0.73608 -1.04733,1.43095 -1.78594,1.88433 -0.85017,0.52187 -1.64028,0.75311 -2.88987,0.84577 -0.94589,0.0701 -2.24869,0.0171 -2.89512,-0.11781 z m 67.310205,-0.4727 c -0.5881,-0.27573 -1.38861,-0.88082 -1.77889,-1.34465 -0.39029,-0.46383 -0.83855,-1.28444 -0.99613,-1.82359 -0.19194,-0.656674 -0.25978,-4.749694 -0.20549,-12.399206 l 0.081,-11.418945 0.80909,-1.016471 c 0.44499,-0.55906 1.33342,-1.284363 1.97429,-1.611785 0.92391,-0.472036 1.60769,-0.595312 3.30203,-0.595312 1.69085,0 2.3825,0.12425 3.31384,0.595312 0.68778,0.347872 1.5084,1.072014 1.97429,1.742198 l 0.79729,1.146885 0.0769,11.373535 0.0769,11.373535 -0.64876,1.417064 c -0.45728,0.99885 -0.97698,1.63428 -1.7609,2.15306 l -1.11215,0.73598 -2.41705,0.0868 c -1.94795,0.07 -2.62456,-0.0104 -3.48632,-0.41447 z"
       id="path304" /></g></svg>
