<?xml version="1.0" encoding="UTF-8" standalone="no"?>
<!-- Created with Inkscape (http://www.inkscape.org/) -->

<svg
   width="135.42014mm"
   height="135.46672mm"
   viewBox="0 0 135.42014 135.46672"
   version="1.1"
   id="svg5"
   xml:space="preserve"
   xmlns:inkscape="http://www.inkscape.org/namespaces/inkscape"
   xmlns:sodipodi="http://sodipodi.sourceforge.net/DTD/sodipodi-0.dtd"
   xmlns="http://www.w3.org/2000/svg"
   xmlns:svg="http://www.w3.org/2000/svg"><sodipodi:namedview
     id="namedview7"
     pagecolor="#ffffff"
     bordercolor="#000000"
     borderopacity="0.25"
     inkscape:showpageshadow="2"
     inkscape:pageopacity="0.0"
     inkscape:pagecheckerboard="0"
     inkscape:deskcolor="#d1d1d1"
     inkscape:document-units="mm"
     showgrid="false" /><defs
     id="defs2" /><g
     inkscape:label="Layer 1"
     inkscape:groupmode="layer"
     id="layer1"
     transform="translate(-48.55074,-65.113897)"><path
       style="fill:#00aeef;fill-opacity:1;stroke-width:0.264583"
       d="m 50.753993,200.04627 c -0.67786,-0.33554 -1.29591,-0.92066 -1.6637,-1.57506 -0.58518,-1.04119 -0.58518,-1.04119 -0.49735,-23.07998 0.0766,-19.21414 0.14156,-22.20835 0.50704,-23.36171 0.23057,-0.72761 0.67637,-1.96395 0.99067,-2.74743 0.3143,-0.78348 1.08552,-2.21223 1.71382,-3.175 0.62831,-0.96277 1.96321,-2.53331 2.96645,-3.49008 1.00325,-0.95677 2.53846,-2.15221 3.41158,-2.65653 0.87313,-0.50431 2.22182,-1.17725 2.99709,-1.49542 0.77527,-0.31817 2.14449,-0.71538 3.04271,-0.8827 0.89822,-0.16732 1.81171,-0.36246 2.03,-0.43364 0.21828,-0.0712 -0.37704,-0.29193 -1.32292,-0.49053 -0.94589,-0.19861 -2.61012,-0.80005 -3.6983,-1.33653 -1.43143,-0.70571 -2.53489,-1.53181 -3.99065,-2.98757 -1.45815,-1.45814 -2.28023,-2.55687 -2.98586,-3.99065 -0.53555,-1.08818 -1.1487,-2.81194 -1.36257,-3.83059 -0.21387,-1.01865 -0.38885,-2.50693 -0.38885,-3.30729 0,-0.80037 0.17498,-2.28864 0.38885,-3.30728 0.21387,-1.01865 0.82702,-2.74241 1.36257,-3.83059 0.70563,-1.43378 1.52771,-2.53252 2.98586,-3.99066 1.45814,-1.45814 2.55688,-2.28023 3.99065,-2.98586 1.08818,-0.53554 2.81195,-1.1487 3.83059,-1.36256 1.01865,-0.21387 2.50693,-0.38885 3.30729,-0.38885 0.80037,0 2.28865,0.17498 3.30729,0.38885 1.01865,0.21386 2.74506,0.8249 3.83646,1.35786 1.46773,0.71673 2.50851,1.49772 3.9975,2.99971 1.44054,1.45311 2.28812,2.58948 2.97999,3.99535 0.53178,1.08057 1.14186,2.7981 1.35572,3.81675 0.21387,1.01864 0.38885,2.50691 0.38885,3.30728 0,0.80036 -0.17498,2.28864 -0.38885,3.30729 -0.21386,1.01865 -0.82702,2.74241 -1.36256,3.83059 -0.70563,1.43378 -1.52772,2.53251 -2.98586,3.99065 -1.45576,1.45576 -2.55923,2.28186 -3.99065,2.98757 -1.08818,0.53648 -2.75242,1.15032 -3.6983,1.36409 -1.67178,0.37781 -1.57204,0.38588 3.57187,0.28889 4.27307,-0.0806 5.68315,-0.2044 7.32545,-0.64328 1.11858,-0.29893 2.84499,-0.86321 3.83646,-1.25395 0.99147,-0.39075 2.69639,-1.23643 3.78871,-1.87929 1.09232,-0.64287 2.84696,-1.87931 3.89919,-2.74766 1.05224,-0.86835 2.62362,-2.43973 3.49197,-3.49196 0.86834,-1.05224 2.10479,-2.80687 2.747647,-3.89919 0.64287,-1.09233 1.48855,-2.79725 1.87929,-3.78872 0.39075,-0.99146 0.94506,-2.71786 1.2318,-3.83645 0.28674,-1.11858 0.63067,-3.58159 0.76428,-5.47337 0.13361,-1.89177 0.35859,-3.82113 0.49996,-4.28748 0.14138,-0.46634 0.64465,-1.57512 1.11839,-2.46396 0.47375,-0.88883 1.46587,-2.16256 2.20473,-2.8305 0.73885,-0.667944 2.08568,-1.563831 2.99296,-1.990855 0.90727,-0.427027 2.42547,-0.909315 3.37377,-1.071753 1.30707,-0.223891 2.18144,-0.216927 3.61431,0.02878 1.15488,0.198041 2.59928,0.696772 3.71321,1.282123 1.10228,0.579234 2.29971,1.488125 3.02858,2.298815 0.66303,0.73744 1.53686,2.0004 1.94186,2.80657 0.40499,0.80617 0.87033,2.0967 1.03408,2.86785 0.16374,0.77115 0.29772,2.17482 0.29772,3.11928 0,0.94446 -0.12335,2.87336 -0.27411,4.28646 -0.15076,1.4131 -0.5194,3.81942 -0.81919,5.34738 -0.2998,1.52796 -1.01686,4.20687 -1.59347,5.95312 -0.5766,1.74625 -1.75385,4.61517 -2.6161,6.37537 -0.86225,1.76021 -2.33767,4.35196 -3.2787,5.75946 -0.94104,1.4075 -2.4166,3.42014 -3.27903,4.47254 -0.86242,1.05241 -2.74355,3.04466 -4.18029,4.42723 -1.43673,1.38258 -3.51314,3.19807 -4.61425,4.03443 -1.10111,0.83635 -3.25807,2.27503 -4.79326,3.19705 -1.53518,0.92202 -4.063077,2.2334 -5.617537,2.91417 -1.55446,0.68078 -4.16,1.64158 -5.79007,2.13512 -2.96378,0.89736 -2.96378,0.89736 -3.09607,20.03891 -0.1277,18.47792 -0.15044,19.17156 -0.65568,20.00707 -0.28786,0.47603 -1.01006,1.10111 -1.60489,1.38906 -1.04224,0.50454 -1.68114,0.52354 -17.60057,0.52334 -16.0346,-2.1e-4 -16.5507,-0.0159 -17.59758,-0.53408 z m 95.790717,0.006 c -0.58682,-0.29048 -1.3012,-0.91546 -1.5875,-1.38885 -0.50152,-0.82925 -0.52538,-1.56013 -0.65284,-19.99924 -0.13229,-19.13853 -0.13229,-19.13853 -3.57187,-20.27086 -1.89177,-0.62278 -4.86833,-1.85027 -6.61458,-2.72774 -1.74625,-0.87748 -4.24657,-2.30266 -5.55625,-3.16705 -1.30969,-0.8644 -3.30399,-2.30718 -4.43177,-3.20618 -1.12779,-0.899 -2.05052,-1.68147 -2.05052,-1.73883 0,-0.0574 0.92502,-1.33585 2.05559,-2.84109 1.13058,-1.50524 2.74464,-3.89463 3.5868,-5.30976 0.84215,-1.41513 2.05086,-3.68502 2.68601,-5.0442 0.63515,-1.35918 1.58349,-3.71369 2.10744,-5.23225 0.52394,-1.51855 1.00615,-2.91062 1.07159,-3.09348 0.0692,-0.19353 1.03086,0.61739 2.30103,1.94042 1.20014,1.25009 2.95975,2.85947 3.91024,3.5764 0.95049,0.71693 2.91879,1.89765 4.374,2.62381 1.46437,0.73074 3.8273,1.63092 5.29167,2.01592 2.32734,0.61189 3.2669,0.70689 7.80521,0.78924 5.03033,0.0913 5.11636,0.0839 3.43958,-0.29377 -0.94589,-0.21307 -2.61012,-0.82633 -3.6983,-1.36282 -1.43143,-0.70571 -2.53489,-1.53181 -3.99065,-2.98756 -1.45815,-1.45815 -2.28023,-2.55688 -2.98586,-3.99066 -0.53555,-1.08818 -1.1487,-2.81194 -1.36257,-3.83059 -0.21387,-1.01864 -0.38885,-2.50692 -0.38885,-3.30729 0,-0.80036 0.17498,-2.28863 0.38885,-3.30728 0.21387,-1.01865 0.82702,-2.74241 1.36257,-3.83059 0.70563,-1.43378 1.52771,-2.53251 2.98586,-3.99066 1.45814,-1.45814 2.55687,-2.28023 3.99065,-2.98586 1.08818,-0.53554 2.81195,-1.1487 3.83059,-1.36256 1.01865,-0.21387 2.50693,-0.38885 3.30729,-0.38885 0.80037,0 2.28865,0.17498 3.30729,0.38885 1.01865,0.21386 2.74506,0.8249 3.83646,1.35786 1.46773,0.71673 2.50851,1.49772 3.9975,2.99971 1.44054,1.45311 2.28812,2.58949 2.97999,3.99535 0.53178,1.08057 1.14186,2.7981 1.35572,3.81675 0.21387,1.01865 0.38885,2.50692 0.38885,3.30728 0,0.80037 -0.17498,2.28865 -0.38885,3.30729 -0.21386,1.01865 -0.82702,2.74241 -1.36256,3.83059 -0.70563,1.43378 -1.52772,2.53251 -2.98586,3.99066 -1.45576,1.45575 -2.55923,2.28185 -3.99065,2.98756 -1.08818,0.53649 -2.75242,1.13792 -3.6983,1.33653 -0.94589,0.1986 -1.5412,0.41934 -1.32292,0.49053 0.21828,0.0712 1.12263,0.26443 2.00966,0.42944 0.88703,0.16501 2.36535,0.60581 3.28514,0.97956 0.9198,0.37374 2.33717,1.09875 3.14971,1.61112 0.81255,0.51237 2.28833,1.72376 3.2795,2.69197 0.99117,0.9682 2.32358,2.59381 2.9609,3.61246 0.63732,1.01864 1.55277,2.98317 2.03432,4.36562 0.87556,2.51354 0.87556,2.51354 0.95184,24.43565 0.0759,21.8016 0.0732,21.9284 -0.47893,23.06899 -0.40617,0.83903 -0.85744,1.2932 -1.68116,1.69196 -1.10008,0.53253 -1.50585,0.54506 -17.64504,0.54486 -15.97548,-2e-4 -16.55417,-0.0176 -17.58602,-0.52836 z M 98.663753,88.422007 c -0.64576,-0.300672 -2.72425,-2.180754 -5.33177,-4.822835 -3.44473,-3.49037 -4.33792,-4.548129 -4.60595,-5.454546 -0.26492,-0.895959 -0.26609,-1.346129 -0.006,-2.215148 0.17973,-0.599868 0.60074,-1.364635 0.93559,-1.699483 0.33485,-0.334848 1.09962,-0.755862 1.69948,-0.935587 0.86902,-0.260364 1.31919,-0.2592 2.21515,0.0057 0.90642,0.268021 1.96418,1.161217 5.45455,4.605943 2.642077,2.607529 4.522157,4.686012 4.822827,5.331776 0.27102,0.582083 0.49277,1.355989 0.49277,1.719792 0,0.363802 -0.23149,1.171494 -0.51442,1.794872 -0.39272,0.865263 -0.78257,1.255121 -1.64784,1.647835 -0.62337,0.282932 -1.43107,0.514421 -1.79487,0.514421 -0.3638,0 -1.137707,-0.221745 -1.719787,-0.492767 z m 31.674917,-0.02165 c -0.86527,-0.392715 -1.25512,-0.782573 -1.64784,-1.647835 -0.28293,-0.623378 -0.51442,-1.431071 -0.51442,-1.794873 0,-0.363802 0.22175,-1.137708 0.49277,-1.719792 0.30067,-0.645764 2.18075,-2.724246 4.82284,-5.331775 3.49037,-3.444727 4.54812,-4.337922 5.45454,-4.605943 0.89596,-0.264928 1.34613,-0.266092 2.21515,-0.0057 0.59987,0.179724 1.36463,0.600738 1.69948,0.935586 0.33485,0.334849 0.75587,1.099616 0.93559,1.699483 0.26036,0.869019 0.2592,1.319189 -0.006,2.215148 -0.26802,0.906417 -1.16121,1.964177 -4.60594,5.454547 -2.60753,2.64208 -4.68601,4.522163 -5.33177,4.822835 -0.58209,0.271022 -1.35599,0.492767 -1.7198,0.492767 -0.3638,0 -1.17149,-0.231489 -1.79487,-0.514421 z m -15.8201,-7.945743 c -0.67125,-0.332268 -1.2957,-0.920289 -1.65365,-1.55717 -0.53199,-0.946542 -0.57513,-1.385063 -0.57513,-5.846044 0,-4.421994 0.0466,-4.905592 0.56036,-5.819764 0.3082,-0.548362 1.00902,-1.249182 1.55738,-1.557379 0.54836,-0.308196 1.37251,-0.560357 1.83143,-0.560357 0.45893,0 1.29337,0.234143 1.85432,0.520317 0.69872,0.356461 1.19533,0.882698 1.57696,1.671036 0.5008,1.034511 0.55705,1.614794 0.55705,5.746147 0,4.099363 -0.0588,4.716974 -0.54507,5.721394 -0.39574,0.817487 -0.85355,1.275296 -1.67103,1.671035 -0.61928,0.299789 -1.4158,0.544976 -1.77004,0.544861 -0.35424,-1.14e-4 -1.1294,-0.240449 -1.72258,-0.534076 z"
       id="path302" /></g></svg>
