<?xml version="1.0" encoding="UTF-8" standalone="no"?>
<!-- Created with Inkscape (http://www.inkscape.org/) -->

<svg
   width="128.65034mm"
   height="123.22798mm"
   viewBox="0 0 128.65034 123.22798"
   version="1.1"
   id="svg5"
   xml:space="preserve"
   xmlns:inkscape="http://www.inkscape.org/namespaces/inkscape"
   xmlns:sodipodi="http://sodipodi.sourceforge.net/DTD/sodipodi-0.dtd"
   xmlns="http://www.w3.org/2000/svg"
   xmlns:svg="http://www.w3.org/2000/svg"><sodipodi:namedview
     id="namedview7"
     pagecolor="#ffffff"
     bordercolor="#000000"
     borderopacity="0.25"
     inkscape:showpageshadow="2"
     inkscape:pageopacity="0.0"
     inkscape:pagecheckerboard="0"
     inkscape:deskcolor="#d1d1d1"
     inkscape:document-units="mm"
     showgrid="false" /><defs
     id="defs2" /><g
     inkscape:label="Layer 1"
     inkscape:groupmode="layer"
     id="layer1"
     transform="translate(-62.644952,-54.877177)"><path
       style="fill:#000000;stroke-width:0.264583"
       d="m 143.17494,177.7353 c -0.89273,-0.19415 -2.35467,-0.64848 -3.24876,-1.00962 -0.8941,-0.36114 -2.28779,-1.05603 -3.09708,-1.54419 -0.8093,-0.48817 -2.17823,-1.52549 -3.04207,-2.30516 -0.86385,-0.77966 -2.08923,-2.14888 -2.72308,-3.0427 -0.63384,-0.89382 -1.53178,-2.38195 -1.99542,-3.30695 -0.46363,-0.925 -1.08967,-2.59187 -1.39118,-3.70417 -0.41175,-1.51894 -0.54821,-2.81268 -0.54821,-5.19735 0,-2.40173 0.13588,-3.67676 0.5579,-5.23523 0.30684,-1.13313 1.04119,-2.98919 1.63188,-4.12458 0.59069,-1.13538 1.72375,-2.85207 2.5179,-3.81485 0.79415,-0.96279 2.24937,-2.36069 3.23383,-3.10646 0.98446,-0.74577 2.62336,-1.75421 3.64201,-2.24098 1.01864,-0.48677 2.56645,-1.07669 3.43958,-1.31094 0.87312,-0.23426 2.68359,-0.4985 4.02325,-0.58722 1.48806,-0.0985 3.23809,-0.0324 4.49792,0.17007 1.13419,0.18225 2.83607,0.62122 3.78195,0.97548 0.94589,0.35426 2.55323,1.13737 3.57188,1.74025 1.01864,0.60288 2.74505,2.00364 3.83646,3.11281 1.0914,1.10917 2.43403,2.78373 2.98361,3.72125 0.54959,0.93751 1.32349,2.56648 1.71979,3.61993 l 0.72055,1.91537 9.525,0.004 c 5.72622,0.003 9.91743,0.11333 10.50898,0.27761 0.54118,0.15031 1.35007,0.58134 1.79753,0.95785 0.44747,0.37652 1.04648,1.1411 1.33114,1.69908 0.28544,0.55952 0.51756,1.5455 0.51756,2.19846 0,0.65116 -0.12664,1.51911 -0.28141,1.92877 -0.15478,0.40965 -0.60127,1.08726 -0.99219,1.50579 -0.39093,0.41853 -1.18702,0.98147 -1.76911,1.25096 l -1.05833,0.49 -9.81385,0.006 -9.81385,0.006 -0.3365,1.12448 c -0.18508,0.61846 -0.69421,1.83885 -1.13141,2.71198 -0.4372,0.87312 -1.31351,2.3188 -1.94735,3.21262 -0.63385,0.89383 -1.85923,2.26304 -2.72308,3.04271 -0.86384,0.77967 -2.23277,1.81699 -3.04207,2.30516 -0.80929,0.48816 -2.19688,1.18059 -3.08352,1.53872 -0.88665,0.35813 -2.40812,0.81986 -3.38106,1.02606 -0.97293,0.2062 -2.90007,0.36751 -4.28252,0.35847 -1.38244,-0.009 -3.24395,-0.17529 -4.13667,-0.36944 z M 65.687664,162.28447 c -0.58208,-0.26865 -1.32054,-0.77368 -1.64102,-1.12228 -0.32047,-0.34861 -0.76696,-1.07487 -0.99218,-1.61391 -0.22523,-0.53904 -0.40689,-1.43039 -0.4037,-1.98076 0.003,-0.55038 0.22438,-1.48187 0.49152,-2.06997 0.26714,-0.5881 0.86353,-1.3872 1.32532,-1.77577 0.46179,-0.38857 1.28241,-0.82946 1.82359,-0.97976 0.64464,-0.17904 9.5823,-0.27379 25.91689,-0.27475 l 24.932916,-0.002 -0.19438,1.65364 c -0.10691,0.90951 -0.19438,2.48709 -0.19438,3.50573 0,1.01865 0.0875,2.59623 0.19438,3.50573 l 0.19438,1.65365 -25.197496,-0.006 -25.19751,-0.006 -1.05833,-0.48846 z m 38.230256,-25.42509 c -0.947,-0.11685 -2.6734,-0.52962 -3.83645,-0.91726 -1.163056,-0.38765 -2.927506,-1.18497 -3.921016,-1.77182 -0.9935,-0.58685 -2.6318,-1.84567 -3.64066,-2.79739 -1.00887,-0.95171 -2.385,-2.55874 -3.05807,-3.57119 -0.67308,-1.01245 -1.60322,-2.81261 -2.067,-4.00035 l -0.84322,-2.15954 -10.31939,-0.13229 -10.31939,-0.13229 -1.07266,-0.71015 c -0.64579,-0.42754 -1.29601,-1.1715 -1.63389,-1.86947 -0.30934,-0.63901 -0.56122,-1.67808 -0.56122,-2.31517 0,-0.64098 0.2527,-1.67785 0.5673,-2.32772 0.37709,-0.77898 0.97106,-1.42794 1.77159,-1.93562 l 1.2043,-0.76374 h 10.20693 10.20693 l 0.63976,-1.8792 c 0.35188,-1.03355 1.20787,-2.80231 1.9022,-3.93057 0.79247,-1.28772 2.09643,-2.84082 3.50275,-4.17202 1.71566,-1.624024 2.81781,-2.405924 4.70626,-3.338764 1.35627,-0.66996 3.299376,-1.42184 4.318016,-1.67084 1.22888,-0.30038 2.87593,-0.44784 4.89479,-0.43821 2.22305,0.0106 3.59771,0.16413 5.10295,0.56996 1.13313,0.3055 2.97859,1.03344 4.10104,1.61763 1.12244,0.58419 2.7433,1.64162 3.60192,2.349834 0.85861,0.70821 2.14479,1.99016 2.85818,2.84877 0.71339,0.85862 1.82647,2.63268 2.47351,3.94237 0.64703,1.30968 1.38229,3.15515 1.6339,4.10104 0.31746,1.19342 0.45748,2.73203 0.45748,5.02708 0,2.3172 -0.13853,3.82213 -0.46276,5.02708 -0.25453,0.94589 -0.91775,2.67439 -1.47384,3.84112 -0.55609,1.16673 -1.57724,2.8336 -2.26923,3.70416 -0.69198,0.87057 -1.69301,1.97608 -2.22451,2.45671 -0.53149,0.48062 -1.62119,1.32707 -2.42155,1.88099 -0.80037,0.55391 -1.95261,1.26003 -2.56055,1.56914 -0.60793,0.30911 -2.09621,0.84785 -3.30729,1.19719 -1.21107,0.34935 -3.15445,0.69769 -4.31862,0.77408 -1.16417,0.0764 -2.89149,0.0433 -3.83849,-0.0735 z m 33.00134,-16.07744 c 0.11058,-0.40019 0.20106,-2.33495 0.20106,-4.29948 0,-1.96453 -0.0905,-3.8993 -0.20106,-4.29948 l -0.20106,-0.7276 h 25.3215 25.32151 l 1.15932,0.56122 c 0.68604,0.3321 1.4409,0.98669 1.84903,1.60342 0.4558,0.68876 0.72972,1.52483 0.80772,2.46533 l 0.11801,1.42313 -0.59872,1.23679 c -0.40913,0.84516 -0.98005,1.47862 -1.80301,2.00053 l -1.2043,0.76374 H 162.20373 136.7182 Z m 7.05519,-25.225104 c -0.74403,-0.12444 -2.21055,-0.53566 -3.25892,-0.91383 -1.04837,-0.37817 -2.61478,-1.10291 -3.48091,-1.61053 -0.86612,-0.50763 -2.26864,-1.50039 -3.11669,-2.20615 -0.84805,-0.70576 -2.1094,-2.03812 -2.80299,-2.9608 -0.6936,-0.92268 -1.67269,-2.49495 -2.17577,-3.49393 -0.50307,-0.99897 -1.16113,-2.72543 -1.46236,-3.83658 -0.41117,-1.51677 -0.54767,-2.81156 -0.54767,-5.19527 0,-2.38466 0.13646,-3.67841 0.54821,-5.19735 0.30151,-1.11229 0.92755,-2.77916 1.39118,-3.70416 0.46364,-0.925 1.36158,-2.41313 1.99542,-3.30695 0.63385,-0.89382 1.85923,-2.26304 2.72308,-3.04271 0.86384,-0.77966 2.23277,-1.81698 3.04207,-2.30515 0.80929,-0.48817 2.19781,-1.18097 3.08559,-1.53955 0.88777,-0.35859 2.46878,-0.83392 3.51334,-1.05628 1.35111,-0.28762 2.77731,-0.36647 4.94192,-0.27323 2.08773,0.0899 3.62399,0.31378 4.89479,0.71319 1.01864,0.32016 2.64119,0.99418 3.60565,1.49781 0.96446,0.50364 2.54293,1.56681 3.50771,2.3626 0.96478,0.7958 2.29019,2.12815 2.94535,2.9608 0.65517,0.83265 1.65457,2.40687 2.22089,3.49828 0.56632,1.0914 1.17814,2.48643 1.3596,3.10006 l 0.32992,1.11569 10.25709,0.0749 10.25709,0.0749 1.12333,0.79375 c 0.61783,0.43656 1.3678,1.2669 1.6666,1.8452 0.33724,0.65268 0.54286,1.5558 0.54216,2.38125 -7.9e-4,0.92002 -0.20081,1.6843 -0.64916,2.48022 -0.40428,0.71769 -1.09697,1.41435 -1.84151,1.85208 l -1.19347,0.70166 -10.08192,0.0778 -10.08192,0.0778 -0.3332,1.11285 c -0.18327,0.61206 -0.72286,1.8868 -1.1991,2.83276 -0.47624,0.94595 -1.43338,2.47484 -2.12697,3.39752 -0.6936,0.92268 -1.92869,2.23231 -2.74465,2.91029 -0.81597,0.67798 -2.08075,1.61493 -2.81062,2.08213 -0.72987,0.46719 -2.15738,1.16264 -3.17225,1.54543 -1.01486,0.3828 -2.71888,0.86375 -3.78671,1.06879 -1.06783,0.20504 -2.79423,0.35887 -3.83646,0.34186 -1.04222,-0.017 -2.50371,-0.13274 -3.24774,-0.25718 z M 66.253144,80.111556 c -0.5621,-0.20038 -1.37641,-0.70117 -1.80955,-1.11286 -0.43315,-0.41169 -0.97252,-1.10293 -1.1986,-1.53609 -0.22608,-0.43315 -0.41105,-1.38682 -0.41105,-2.11926 0,-0.84294 0.21001,-1.74335 0.57219,-2.45329 0.32793,-0.6428 1.04171,-1.43232 1.67203,-1.84949 l 1.09985,-0.7279 25.4893,-0.07 25.489296,-0.07 -0.19917,1.12837 c -0.10955,0.62061 -0.19918,2.43806 -0.19918,4.03879 0,1.60073 0.0893,3.41643 0.19856,4.03489 l 0.19855,1.12448 -24.940096,-0.0116 -24.94011,-0.0116 -1.02202,-0.36433 z"
       id="path357" /></g></svg>
