<?xml version="1.0" encoding="UTF-8" standalone="no"?>
<!-- Created with Inkscape (http://www.inkscape.org/) -->

<svg
   width="129.88152mm"
   height="77.743675mm"
   viewBox="0 0 129.88152 77.743675"
   version="1.1"
   id="svg5"
   xml:space="preserve"
   inkscape:export-filename="bitmap.svg"
   inkscape:export-xdpi="96"
   inkscape:export-ydpi="96"
   inkscape:version="1.2.2 (b0a8486541, 2022-12-01)"
   sodipodi:docname="drawing.svg"
   xmlns:inkscape="http://www.inkscape.org/namespaces/inkscape"
   xmlns:sodipodi="http://sodipodi.sourceforge.net/DTD/sodipodi-0.dtd"
   xmlns="http://www.w3.org/2000/svg"
   xmlns:svg="http://www.w3.org/2000/svg"><sodipodi:namedview
     id="namedview7"
     pagecolor="#ffffff"
     bordercolor="#000000"
     borderopacity="0.25"
     inkscape:showpageshadow="2"
     inkscape:pageopacity="0.0"
     inkscape:pagecheckerboard="0"
     inkscape:deskcolor="#d1d1d1"
     inkscape:document-units="mm"
     showgrid="false"
     inkscape:zoom="0.77326038"
     inkscape:cx="397.02021"
     inkscape:cy="561.90646"
     inkscape:window-width="1920"
     inkscape:window-height="1011"
     inkscape:window-x="1920"
     inkscape:window-y="32"
     inkscape:window-maximized="1"
     inkscape:current-layer="layer1" /><defs
     id="defs2" /><g
     inkscape:label="Layer 1"
     inkscape:groupmode="layer"
     id="layer1"
     transform="translate(-43.397763,-64.862036)"><path
       style="fill:#00aeef;fill-opacity:1;stroke:none;stroke-width:0.264583"
       d="m 74.632212,141.97615 c -1.56447,-0.7285 -3.079758,-2.38077 -3.51468,-3.83242 -0.636566,-2.12467 -0.40555,-67.924408 0.24351,-69.358278 2.523765,-5.57536 10.561414,-5.09866 12.31571,0.73042 0.560978,1.86399 0.536028,66.591078 -0.02641,68.476238 -1.12689,3.77717 -5.4043,5.66684 -9.018145,3.98404 z m 62.790818,0.3646 c -2.0691,-0.62302 -3.88714,-2.58897 -4.43136,-4.79191 -0.78199,-3.16537 -0.19074,-67.739308 0.63386,-69.227568 2.7042,-4.88058 9.81602,-4.50316 11.96282,0.63487 0.70117,1.67814 0.52206,68.391508 -0.18755,69.857368 -1.40078,2.89363 -4.91778,4.44861 -7.97777,3.52724 z m -79.858793,-7.87249 c -3.257105,-1.65164 -3.025644,0.70133 -3.025644,-30.75781 0,-27.735668 0,-27.735668 0.798268,-28.871458 2.882536,-4.10135 10.32095,-3.29671 11.882211,1.28534 0.631512,1.85338 0.631512,53.318848 0,55.172238 -1.177907,3.45696 -5.980791,5.03475 -9.654835,3.17169 z m 95.399353,0.32979 c -1.35273,-0.47879 -3.17689,-2.39665 -3.54682,-3.72902 -0.40669,-1.46474 -0.40073,-53.272678 0.006,-54.742958 1.2906,-4.66194 9.1337,-5.64093 12.00555,-1.49856 1.25535,1.81071 1.25535,55.955158 0,57.765868 -1.59327,2.29816 -5.39986,3.28956 -8.46502,2.20467 z M 44.963978,114.17085 c -1.650432,-0.7178 -2.207988,-18.684488 -0.631868,-20.361318 4.224388,-4.49432 6.899192,-0.60446 6.899192,10.033208 0,11.1305 -0.923443,12.65227 -6.267324,10.32811 z m 42.250655,-10.32811 c 0,-10.715628 0,-10.715628 21.166667,-10.715628 21.16666,0 21.16666,0 21.16666,10.715628 0,10.71562 0,10.71562 -21.16666,10.71562 -21.166667,0 -21.166667,0 -21.166667,-10.71562 z m 78.316657,-0.13229 c 0,-10.503918 2.6959,-14.372748 6.8992,-9.900928 1.15261,1.22625 1.12197,18.813088 -0.0348,19.969848 -4.19832,4.19833 -6.86441,0.28763 -6.86441,-10.06892 z"
       id="path302"
       inkscape:export-filename="dumbell.svg"
       inkscape:export-xdpi="96"
       inkscape:export-ydpi="96" /></g></svg>
