<?xml version="1.0" encoding="UTF-8" standalone="no"?>
<!-- Created with Inkscape (http://www.inkscape.org/) -->

<svg
   width="157.33966mm"
   height="148.27011mm"
   viewBox="0 0 157.33966 148.27011"
   version="1.1"
   id="svg5"
   xml:space="preserve"
   xmlns:inkscape="http://www.inkscape.org/namespaces/inkscape"
   xmlns:sodipodi="http://sodipodi.sourceforge.net/DTD/sodipodi-0.dtd"
   xmlns="http://www.w3.org/2000/svg"
   xmlns:svg="http://www.w3.org/2000/svg"><sodipodi:namedview
     id="namedview7"
     pagecolor="#ffffff"
     bordercolor="#000000"
     borderopacity="0.25"
     inkscape:showpageshadow="2"
     inkscape:pageopacity="0.0"
     inkscape:pagecheckerboard="0"
     inkscape:deskcolor="#d1d1d1"
     inkscape:document-units="mm"
     showgrid="false" /><defs
     id="defs2" /><g
     inkscape:label="Layer 1"
     inkscape:groupmode="layer"
     id="layer1"
     transform="translate(-41.414277,-61.303087)"><path
       style="fill:#00aeef;fill-opacity:1;stroke-width:0.349168"
       d="m 44.025491,209.11119 c -0.663113,-0.25403 -1.472359,-0.76911 -1.79832,-1.14463 l -0.592669,-0.68275 -0.110112,-21.88067 -0.110112,-21.88065 0.585585,-1.06993 c 0.322079,-0.58845 1.180866,-1.34697 1.908429,-1.68562 l 1.322845,-0.61568 9.903633,-0.001 c 7.568483,-9.2e-4 10.218099,0.0992 11.237277,0.42426 0.7335,0.23396 1.62689,0.74501 1.985309,1.13566 l 0.651665,0.71026 v 22.50321 22.50323 l -1.16552,0.99631 -1.165521,0.99641 -10.723421,0.0768 -10.723422,0.0768 z m 55.257696,-0.0669 c -0.603189,-0.28976 -1.367491,-0.96246 -1.698421,-1.49486 l -0.601711,-0.968 v -35.73431 -35.7343 l 0.557229,-1.01812 c 0.306478,-0.55996 0.975901,-1.24198 1.487613,-1.5156 l 0.930395,-0.49749 h 10.682258 c 7.43087,0 11.00116,0.11093 11.73009,0.36448 0.5763,0.20046 1.30411,0.74279 1.61732,1.20517 l 0.56946,0.84069 v 36.46738 36.46738 l -1.16553,0.99633 -1.16555,0.99632 -10.92321,0.0759 -10.92323,0.0759 z m 55.548353,0 c -0.60319,-0.28976 -1.36749,-0.96246 -1.69842,-1.49486 l -0.6017,-0.968 V 151.48436 96.387286 h -7.83272 -7.83272 l -1.40949,-1.076022 -1.40949,-1.076022 0.20127,-1.36318 0.20127,-1.363179 14.09387,-14.350059 c 7.75163,-7.892531 14.62127,-14.688838 15.26585,-15.10289 0.65152,-0.418525 1.68239,-0.752843 2.32138,-0.752843 0.63219,0 1.63819,0.170007 2.23553,0.377788 0.70613,0.245613 6.10811,5.487275 15.44053,14.982292 7.89493,8.032477 14.53376,14.997235 14.75297,15.477253 0.27452,0.601227 0.25865,1.196309 -0.0511,1.912761 -0.24728,0.571998 -0.82084,1.296845 -1.27458,1.610776 l -0.82497,0.570775 -8.05173,0.15255 -8.0517,0.152538 -0.19983,55.593886 -0.19981,55.59389 -1.10742,0.84588 -1.10744,0.84589 -10.88141,0.0759 -10.88145,0.0759 z"
       id="path1660"
       inkscape:export-filename="plot.svg"
       inkscape:export-xdpi="96"
       inkscape:export-ydpi="96" /></g></svg>
