<?xml version="1.0" encoding="UTF-8" standalone="no"?>
<!-- Created with Inkscape (http://www.inkscape.org/) -->

<svg
   width="7.9374619mm"
   height="7.9763718mm"
   viewBox="0 0 7.9374619 7.9763718"
   version="1.1"
   id="svg5"
   xml:space="preserve"
   xmlns:inkscape="http://www.inkscape.org/namespaces/inkscape"
   xmlns:sodipodi="http://sodipodi.sourceforge.net/DTD/sodipodi-0.dtd"
   xmlns="http://www.w3.org/2000/svg"
   xmlns:svg="http://www.w3.org/2000/svg"><sodipodi:namedview
     id="namedview7"
     pagecolor="#ffffff"
     bordercolor="#000000"
     borderopacity="0.25"
     inkscape:showpageshadow="2"
     inkscape:pageopacity="0.0"
     inkscape:pagecheckerboard="0"
     inkscape:deskcolor="#d1d1d1"
     inkscape:document-units="mm"
     showgrid="false" /><defs
     id="defs2" /><g
     inkscape:label="Layer 1"
     inkscape:groupmode="layer"
     id="layer1"
     transform="translate(-41.009553,-65.525457)"><path
       style="fill:#000000;stroke-width:0.0166583"
       d="m 41.010702,73.481039 c 0.0041,-0.01145 0.129931,-0.468918 0.279633,-1.01659 l 0.272185,-0.995768 -0.111,-0.228619 c -0.274813,-0.566019 -0.390174,-1.030845 -0.406892,-1.639498 -0.01379,-0.501882 0.04133,-0.897149 0.186543,-1.337745 0.2128,-0.645679 0.528825,-1.148862 1.022188,-1.627557 0.594161,-0.576495 1.308045,-0.932145 2.151758,-1.071984 0.224109,-0.03714 0.699917,-0.04965 0.959752,-0.02522 1.491769,0.140241 2.762247,1.096447 3.321497,2.499874 0.08754,0.219669 0.169703,0.517634 0.218969,0.794051 0.05137,0.288243 0.05625,0.959454 0.0091,1.246594 -0.292976,1.782629 -1.690992,3.129231 -3.468133,3.340588 -0.21289,0.02532 -0.684348,0.02524 -0.899549,-1.26e-4 -0.448549,-0.05293 -1.033564,-0.229487 -1.354233,-0.408712 -0.04084,-0.02283 -0.08319,-0.04151 -0.09411,-0.04151 -0.01093,0 -0.476622,0.119915 -1.034883,0.266479 -0.558261,0.146564 -1.025192,0.266504 -1.037625,0.266533 -0.01243,3.4e-5 -0.01925,-0.0093 -0.01516,-0.02077 z m 4.442122,-0.738813 c 1.390917,-0.184099 2.522199,-1.271391 2.785176,-2.676873 0.04414,-0.235888 0.06085,-0.704592 0.03343,-0.93773 -0.06408,-0.544947 -0.242136,-1.034018 -0.535936,-1.472095 -0.75274,-1.122389 -2.074102,-1.664964 -3.405338,-1.398291 -1.109974,0.222349 -2.068322,1.061681 -2.438711,2.135852 -0.324559,0.941253 -0.218763,1.963331 0.28913,2.793266 0.05327,0.08704 0.09636,0.169499 0.09578,0.183242 -5.67e-4,0.01374 -0.07286,0.286699 -0.16061,0.606569 -0.08775,0.31987 -0.156664,0.584456 -0.153151,0.587969 0.0035,0.0035 0.189076,-0.04172 0.412364,-0.100512 0.223289,-0.05879 0.500618,-0.131229 0.616289,-0.160968 l 0.210311,-0.05407 0.122468,0.07152 c 0.648002,0.378454 1.372821,0.522177 2.128804,0.422116 z m 0.33158,-1.380172 c -0.14589,-0.03055 -0.415773,-0.123302 -0.664964,-0.228543 -0.631427,-0.26667 -1.221551,-0.782991 -1.738833,-1.521367 -0.149292,-0.213102 -0.26819,-0.44123 -0.334264,-0.641346 -0.04193,-0.127 -0.04686,-0.165637 -0.0478,-0.374813 -0.0011,-0.253832 0.02637,-0.378807 0.119204,-0.541395 0.06807,-0.119219 0.209891,-0.287449 0.288012,-0.341643 0.06822,-0.04733 0.08163,-0.05011 0.267283,-0.05535 0.270276,-0.0076 0.251306,-0.02843 0.482698,0.52926 0.100511,0.242247 0.182747,0.454388 0.182747,0.471425 0,0.05032 -0.04644,0.126731 -0.193968,0.319168 -0.07656,0.09986 -0.139199,0.197829 -0.139199,0.217703 0,0.08424 0.253245,0.440178 0.467029,0.656419 0.238888,0.241633 0.4769,0.40422 0.825784,0.564098 0.201439,0.09231 0.210915,0.09164 0.317427,-0.0224 0.05041,-0.05397 0.144705,-0.167633 0.209544,-0.252573 0.130313,-0.170714 0.159397,-0.187066 0.276855,-0.15565 0.100237,0.02681 0.854727,0.395344 0.881037,0.430348 0.0453,0.06027 0.0071,0.359502 -0.06582,0.515694 -0.06623,0.141853 -0.320169,0.330388 -0.546357,0.405639 -0.139562,0.04643 -0.426437,0.05882 -0.586413,0.02533 z"
       id="path302"
       inkscape:export-filename="whatsapp.svg"
       inkscape:export-xdpi="96"
       inkscape:export-ydpi="96" /></g></svg>
